<svg id="Calque_2" data-name="Calque 2" xmlns="http://www.w3.org/2000/svg" xmlns:xlink="http://www.w3.org/1999/xlink" viewBox="0 0 697.64 632.23">
  <defs>
    <style>
      .cls-1 {
        stroke: url(#Dégradé_sans_nom_7-18);
      }

      .cls-1, .cls-2, .cls-3, .cls-4, .cls-5, .cls-6, .cls-7, .cls-8, .cls-9, .cls-10, .cls-11, .cls-12, .cls-13, .cls-14, .cls-15, .cls-16, .cls-17, .cls-18, .cls-19, .cls-20, .cls-21, .cls-22, .cls-23, .cls-24, .cls-25, .cls-26, .cls-27, .cls-28, .cls-29, .cls-30, .cls-31, .cls-32 {
        fill: none;
        stroke-miterlimit: 10;
        stroke-width: .75px;
      }

      .cls-2 {
        stroke: url(#Dégradé_sans_nom_7-5);
      }

      .cls-3 {
        stroke: url(#Dégradé_sans_nom_7-21);
      }

      .cls-4 {
        stroke: url(#Dégradé_sans_nom_7-22);
      }

      .cls-5 {
        stroke: url(#Dégradé_sans_nom_7-20);
      }

      .cls-6 {
        stroke: url(#Dégradé_sans_nom_7-14);
      }

      .cls-7 {
        stroke: url(#Dégradé_sans_nom_7-2);
      }

      .cls-8 {
        stroke: url(#Dégradé_sans_nom_7-29);
      }

      .cls-9 {
        stroke: url(#Dégradé_sans_nom_7-16);
      }

      .cls-10 {
        stroke: url(#Dégradé_sans_nom_7-11);
      }

      .cls-11 {
        stroke: url(#Dégradé_sans_nom_7-24);
      }

      .cls-12 {
        stroke: url(#Dégradé_sans_nom_7-27);
      }

      .cls-13 {
        stroke: url(#Dégradé_sans_nom_7-8);
      }

      .cls-14 {
        stroke: url(#Dégradé_sans_nom_7-25);
      }

      .cls-15 {
        stroke: url(#Dégradé_sans_nom_7-23);
      }

      .cls-16 {
        stroke: url(#Dégradé_sans_nom_7-30);
      }

      .cls-17 {
        stroke: url(#Dégradé_sans_nom_7-7);
      }

      .cls-18 {
        stroke: url(#Dégradé_sans_nom_7-28);
      }

      .cls-19 {
        stroke: url(#Dégradé_sans_nom_7-19);
      }

      .cls-20 {
        stroke: url(#Dégradé_sans_nom_7-4);
      }

      .cls-21 {
        stroke: url(#Dégradé_sans_nom_7-26);
      }

      .cls-22 {
        stroke: url(#Dégradé_sans_nom_7-6);
      }

      .cls-23 {
        stroke: url(#Dégradé_sans_nom_7-9);
      }

      .cls-24 {
        stroke: url(#Dégradé_sans_nom_7-3);
      }

      .cls-25 {
        stroke: url(#Dégradé_sans_nom_7-31);
      }

      .cls-26 {
        stroke: url(#Dégradé_sans_nom_7-15);
      }

      .cls-27 {
        stroke: url(#Dégradé_sans_nom_7-12);
      }

      .cls-28 {
        stroke: url(#Dégradé_sans_nom_7-10);
      }

      .cls-29 {
        stroke: url(#Dégradé_sans_nom_7);
      }

      .cls-30 {
        stroke: url(#Dégradé_sans_nom_7-32);
      }

      .cls-31 {
        stroke: url(#Dégradé_sans_nom_7-13);
      }

      .cls-32 {
        stroke: url(#Dégradé_sans_nom_7-17);
      }
    </style>
    <linearGradient id="Dégradé_sans_nom_7" data-name="Dégradé sans nom 7" x1="50.04" y1="-308.15" x2="824.49" y2="-308.15" gradientTransform="translate(378.49 -232.57) rotate(123.91)" gradientUnits="userSpaceOnUse">
      <stop offset=".29" stop-color="#42926c"/>
      <stop offset=".4" stop-color="#377b5b"/>
      <stop offset=".44" stop-color="#4b906f"/>
      <stop offset=".52" stop-color="#6bb491"/>
      <stop offset=".56" stop-color="#78c29e"/>
      <stop offset=".67" stop-color="#adc917"/>
      <stop offset=".69" stop-color="#a0c64e"/>
      <stop offset=".77" stop-color="#1a8240"/>
      <stop offset=".89" stop-color="#218736"/>
      <stop offset="1" stop-color="#056f59"/>
      <stop offset="1" stop-color="#18705e"/>
      <stop offset="1" stop-color="#4a766d"/>
      <stop offset="1" stop-color="#7c7b7c"/>
      <stop offset="1" stop-color="#cbc9c9"/>
    </linearGradient>
    <linearGradient id="Dégradé_sans_nom_7-2" data-name="Dégradé sans nom 7" x1="49.51" y1="-306.84" x2="827.85" y2="-306.84" xlink:href="#Dégradé_sans_nom_7"/>
    <linearGradient id="Dégradé_sans_nom_7-3" data-name="Dégradé sans nom 7" x1="48.98" y1="-305.55" x2="831.22" y2="-305.55" xlink:href="#Dégradé_sans_nom_7"/>
    <linearGradient id="Dégradé_sans_nom_7-4" data-name="Dégradé sans nom 7" x1="48.45" y1="-304.28" x2="834.58" y2="-304.28" xlink:href="#Dégradé_sans_nom_7"/>
    <linearGradient id="Dégradé_sans_nom_7-5" data-name="Dégradé sans nom 7" x1="47.91" y1="-303.02" x2="837.94" y2="-303.02" xlink:href="#Dégradé_sans_nom_7"/>
    <linearGradient id="Dégradé_sans_nom_7-6" data-name="Dégradé sans nom 7" x1="47.38" y1="-301.78" x2="841.31" y2="-301.78" xlink:href="#Dégradé_sans_nom_7"/>
    <linearGradient id="Dégradé_sans_nom_7-7" data-name="Dégradé sans nom 7" x1="46.85" y1="-300.54" x2="844.67" y2="-300.54" xlink:href="#Dégradé_sans_nom_7"/>
    <linearGradient id="Dégradé_sans_nom_7-8" data-name="Dégradé sans nom 7" x1="46.31" y1="-299.32" x2="848.03" y2="-299.32" xlink:href="#Dégradé_sans_nom_7"/>
    <linearGradient id="Dégradé_sans_nom_7-9" data-name="Dégradé sans nom 7" x1="45.78" y1="-298.1" x2="851.39" y2="-298.1" xlink:href="#Dégradé_sans_nom_7"/>
    <linearGradient id="Dégradé_sans_nom_7-10" data-name="Dégradé sans nom 7" x1="45.25" y1="-296.88" x2="854.76" y2="-296.88" xlink:href="#Dégradé_sans_nom_7"/>
    <linearGradient id="Dégradé_sans_nom_7-11" data-name="Dégradé sans nom 7" x1="44.71" y1="-295.67" x2="858.12" y2="-295.67" xlink:href="#Dégradé_sans_nom_7"/>
    <linearGradient id="Dégradé_sans_nom_7-12" data-name="Dégradé sans nom 7" x1="44.18" y1="-294.44" x2="861.48" y2="-294.44" xlink:href="#Dégradé_sans_nom_7"/>
    <linearGradient id="Dégradé_sans_nom_7-13" data-name="Dégradé sans nom 7" x1="43.65" y1="-293.21" x2="864.85" y2="-293.21" xlink:href="#Dégradé_sans_nom_7"/>
    <linearGradient id="Dégradé_sans_nom_7-14" data-name="Dégradé sans nom 7" x1="43.11" y1="-291.97" x2="868.21" y2="-291.97" xlink:href="#Dégradé_sans_nom_7"/>
    <linearGradient id="Dégradé_sans_nom_7-15" data-name="Dégradé sans nom 7" x1="42.58" y1="-290.72" x2="871.57" y2="-290.72" xlink:href="#Dégradé_sans_nom_7"/>
    <linearGradient id="Dégradé_sans_nom_7-16" data-name="Dégradé sans nom 7" x1="42.04" y1="-289.46" x2="874.94" y2="-289.46" xlink:href="#Dégradé_sans_nom_7"/>
    <linearGradient id="Dégradé_sans_nom_7-17" data-name="Dégradé sans nom 7" x1="41.51" y1="-288.18" x2="878.3" y2="-288.18" xlink:href="#Dégradé_sans_nom_7"/>
    <linearGradient id="Dégradé_sans_nom_7-18" data-name="Dégradé sans nom 7" x1="40.98" y1="-286.89" x2="881.66" y2="-286.89" xlink:href="#Dégradé_sans_nom_7"/>
    <linearGradient id="Dégradé_sans_nom_7-19" data-name="Dégradé sans nom 7" x1="40.44" y1="-285.59" x2="885.03" y2="-285.59" xlink:href="#Dégradé_sans_nom_7"/>
    <linearGradient id="Dégradé_sans_nom_7-20" data-name="Dégradé sans nom 7" x1="39.91" y1="-284.28" x2="888.39" y2="-284.28" xlink:href="#Dégradé_sans_nom_7"/>
    <linearGradient id="Dégradé_sans_nom_7-21" data-name="Dégradé sans nom 7" x1="39.37" y1="-282.96" x2="891.76" y2="-282.96" xlink:href="#Dégradé_sans_nom_7"/>
    <linearGradient id="Dégradé_sans_nom_7-22" data-name="Dégradé sans nom 7" x1="38.84" y1="-281.62" x2="895.12" y2="-281.62" xlink:href="#Dégradé_sans_nom_7"/>
    <linearGradient id="Dégradé_sans_nom_7-23" data-name="Dégradé sans nom 7" x1="38.3" y1="-280.26" x2="898.48" y2="-280.26" xlink:href="#Dégradé_sans_nom_7"/>
    <linearGradient id="Dégradé_sans_nom_7-24" data-name="Dégradé sans nom 7" x1="37.77" y1="-278.9" x2="901.85" y2="-278.9" xlink:href="#Dégradé_sans_nom_7"/>
    <linearGradient id="Dégradé_sans_nom_7-25" data-name="Dégradé sans nom 7" x1="37.23" y1="-277.52" x2="905.21" y2="-277.52" xlink:href="#Dégradé_sans_nom_7"/>
    <linearGradient id="Dégradé_sans_nom_7-26" data-name="Dégradé sans nom 7" x1="36.7" y1="-276.13" x2="908.58" y2="-276.13" xlink:href="#Dégradé_sans_nom_7"/>
    <linearGradient id="Dégradé_sans_nom_7-27" data-name="Dégradé sans nom 7" x1="36.17" y1="-274.73" x2="911.94" y2="-274.73" xlink:href="#Dégradé_sans_nom_7"/>
    <linearGradient id="Dégradé_sans_nom_7-28" data-name="Dégradé sans nom 7" x1="35.63" y1="-273.32" x2="915.31" y2="-273.32" xlink:href="#Dégradé_sans_nom_7"/>
    <linearGradient id="Dégradé_sans_nom_7-29" data-name="Dégradé sans nom 7" x1="35.09" y1="-271.89" x2="918.67" y2="-271.89" xlink:href="#Dégradé_sans_nom_7"/>
    <linearGradient id="Dégradé_sans_nom_7-30" data-name="Dégradé sans nom 7" x1="34.56" y1="-270.43" x2="922.04" y2="-270.43" xlink:href="#Dégradé_sans_nom_7"/>
    <linearGradient id="Dégradé_sans_nom_7-31" data-name="Dégradé sans nom 7" x1="34.02" y1="-268.98" x2="925.4" y2="-268.98" xlink:href="#Dégradé_sans_nom_7"/>
    <linearGradient id="Dégradé_sans_nom_7-32" data-name="Dégradé sans nom 7" x1="33.49" y1="-267.54" x2="928.77" y2="-267.54" xlink:href="#Dégradé_sans_nom_7"/>
  </defs>
  <g id="Calque_1-2" data-name="Calque 1">
    <g>
      <path class="cls-29" d="M697.28,42.18c-21.31,67.77-56.99,99.89-76.75,114.23-55.37,40.2-129.82,45.52-172.24,48.55-61.27,4.37-79.75-5.03-102.3,12.36-34.42,26.54-8.6,69.57-38.18,118.93-38.38,64.05-113.15,43.85-151.45,97.42-19.69,27.54-32.87,78.98,9.64,184.02"/>
      <path class="cls-7" d="M696.21,40.82c-20.55,67.06-55.17,101.22-76.26,116.67-54.65,39.76-128.76,45.78-171.18,49.1-60.1,4.7-78.55-4.4-100.98,12.99-34.42,26.73-9.1,69.35-38.4,117.85-38.56,63.53-114.13,41.63-153.87,94.24-20.56,27.22-35.14,78.84,5.13,186.49"/>
      <path class="cls-24" d="M695.14,39.46c-19.8,66.34-53.29,102.62-75.77,119.11-53.81,39.49-127.69,46.04-170.12,49.65-58.92,5.01-77.36-3.77-99.65,13.62-34.41,26.92-9.5,69.19-38.61,116.76-38.61,63.08-115.12,39.4-156.3,91.07-21.44,26.9-37.4,78.7.62,188.95"/>
      <path class="cls-20" d="M694.06,38.1c-19.04,65.62-51.44,103.98-75.28,121.55-53.04,39.11-126.63,46.3-169.06,50.21-57.74,5.31-76.17-3.14-98.32,14.25-34.41,27.11-9.95,69-38.82,115.67-38.72,62.6-116.12,37.17-158.73,87.9-22.32,26.57-39.66,78.56-3.89,191.41"/>
      <path class="cls-2" d="M692.99,36.74c-18.29,64.91-49.59,105.34-74.79,123.99-52.29,38.71-125.56,46.56-168,50.76-56.56,5.6-74.98-2.51-96.99,14.87-34.41,27.3-10.4,68.81-39.03,114.59-38.84,62.11-117.13,34.94-161.15,84.73-23.2,26.24-41.92,78.42-8.4,193.87"/>
      <path class="cls-22" d="M691.92,35.38c-17.53,64.19-47.75,106.7-74.29,126.43-51.54,38.31-124.49,46.81-166.94,51.31-55.38,5.88-73.79-1.88-95.66,15.5-34.41,27.49-10.86,68.62-39.25,113.5-38.96,61.62-118.15,32.7-163.58,81.56-24.1,25.92-44.18,78.28-12.91,196.34"/>
      <path class="cls-17" d="M690.85,34.02c-16.78,63.47-45.9,108.06-73.8,128.87-50.8,37.89-123.43,47.05-165.88,51.87-54.2,6.15-72.59-1.25-94.34,16.13-34.4,27.68-11.33,68.42-39.46,112.41-39.09,61.13-119.19,30.46-166,78.39-25,25.59-46.44,78.14-17.42,198.8"/>
      <path class="cls-13" d="M689.77,32.66c-16.02,62.76-44.06,109.42-73.31,131.31-50.06,37.47-122.36,47.29-164.82,52.42-53.02,6.41-71.4-.62-93.01,16.76-34.4,27.87-11.79,68.22-39.67,111.33-39.22,60.64-120.23,28.22-168.43,75.22-25.9,25.26-48.71,78-21.94,201.26"/>
      <path class="cls-23" d="M688.7,31.3c-15.26,62.04-42.21,110.77-72.82,133.76-49.33,37.05-121.29,47.53-163.76,52.98-51.84,6.65-70.21.01-91.68,17.39-34.4,28.06-12.26,68.03-39.88,110.24-39.35,60.14-121.29,25.97-170.85,72.05-26.81,24.92-50.97,77.86-26.45,203.73"/>
      <path class="cls-28" d="M687.63,29.94c-14.51,61.32-40.37,112.12-72.33,136.2-48.6,36.61-120.21,47.76-162.7,53.53-50.66,6.88-69.06.6-90.35,18.02-34.46,28.18-12.73,67.83-40.1,109.15-39.49,59.65-122.35,23.71-173.28,68.88-27.72,24.58-53.23,77.72-30.96,206.19"/>
      <path class="cls-10" d="M686.56,28.58c-13.75,60.61-38.53,113.47-71.84,138.64-47.88,36.18-119.14,47.98-161.64,54.08-49.48,7.11-67.87,1.23-89.03,18.64-34.46,28.36-13.21,67.62-40.31,108.07-39.63,59.15-123.42,21.45-175.71,65.7-28.64,24.24-55.49,77.58-35.47,208.65"/>
      <path class="cls-27" d="M685.48,27.22c-13,59.89-36.69,114.82-71.35,141.08-47.16,35.73-118.07,48.2-160.58,54.64-48.3,7.32-66.68,1.86-87.7,19.27-34.46,28.55-13.69,67.42-40.52,106.98-39.78,58.65-124.5,19.18-178.13,62.53-29.56,23.9-57.75,77.44-39.98,211.11"/>
      <path class="cls-31" d="M684.41,25.86c-12.24,59.17-34.86,116.16-70.86,143.52-46.44,35.29-117,48.41-159.52,55.19-47.12,7.52-65.49,2.48-86.37,19.9-34.46,28.74-14.17,67.21-40.73,105.89-39.93,58.15-125.59,16.9-180.56,59.36-30.48,23.55-60.01,77.3-44.49,213.58"/>
      <path class="cls-6" d="M683.34,24.5c-11.49,58.46-33.02,117.51-70.37,145.96-45.73,34.84-115.93,48.61-158.46,55.74-45.95,7.71-64.29,3.11-85.04,20.53-34.46,28.92-14.66,67-40.95,104.81-40.08,57.65-126.68,14.61-182.98,56.19-31.41,23.2-62.28,77.16-49,216.04"/>
      <path class="cls-26" d="M682.27,23.14c-10.73,57.74-31.19,118.85-69.88,148.4-45.02,34.39-114.85,48.81-157.4,56.3-44.77,7.88-63.1,3.74-83.72,21.16-34.46,29.11-15.15,66.79-41.16,103.72-40.24,57.14-127.77,12.32-185.41,53.02-32.34,22.84-64.54,77.02-53.51,218.5"/>
      <path class="cls-9" d="M681.19,21.78c-9.98,57.02-29.36,120.18-69.39,150.84-44.31,33.93-113.78,49-156.34,56.85-43.59,8.05-61.91,4.37-82.39,21.78-34.46,29.3-15.65,66.58-41.37,102.63-40.41,56.63-128.88,10.02-187.83,49.85-33.28,22.48-66.8,76.87-58.02,220.97"/>
      <path class="cls-32" d="M680.12,20.42c-9.22,56.31-27.53,121.52-68.89,153.28-43.6,33.47-112.71,49.17-155.28,57.41-42.42,8.2-60.72,5-81.06,22.41-34.46,29.49-16.14,66.36-41.58,101.54-40.58,56.12-129.98,7.72-190.26,46.68-34.21,22.11-69.06,76.73-62.53,223.43"/>
      <path class="cls-1" d="M679.05,19.06c-8.47,55.59-25.7,122.85-68.4,155.72-42.89,33.01-111.64,49.34-154.22,57.96s-59.53,5.64-79.73,23.04c-34.45,29.68-16.65,66.14-41.8,100.46-40.75,55.6-131.09,5.4-192.69,43.51-35.15,21.75-71.32,76.59-67.05,225.89"/>
      <path class="cls-19" d="M677.98,17.7c-7.71,54.87-23.88,124.18-67.91,158.16-42.18,32.55-110.58,49.5-153.16,58.51-40.08,8.48-58.34,6.27-78.4,23.67-34.45,29.87-17.15,65.92-42.01,99.37-40.93,55.08-132.2,3.08-195.11,40.34-36.09,21.37-73.59,76.45-71.56,228.35"/>
      <path class="cls-5" d="M676.9,16.34c-6.96,54.16-22.06,125.5-67.42,160.6-41.48,32.09-109.51,49.65-152.1,59.07-38.91,8.6-57.14,6.9-77.08,24.3-34.45,30.06-17.66,65.7-42.22,98.28-41.12,54.56-133.32.75-197.54,37.17-37.03,21-75.85,76.31-76.07,230.82"/>
      <path class="cls-3" d="M675.83,14.98c-6.2,53.44-20.24,126.83-66.93,163.04-40.78,31.62-108.45,49.79-151.04,59.62-37.74,8.72-55.95,7.53-75.75,24.93-34.44,30.26-18.17,65.47-42.43,97.2-41.31,54.03-134.43-1.58-199.96,33.99-37.97,20.61-78.11,76.17-80.58,233.28"/>
      <path class="cls-4" d="M674.76,13.62c-5.45,52.72-18.42,128.14-66.44,165.48-40.08,31.16-107.39,49.91-149.97,60.17-36.58,8.82-54.76,8.16-74.42,25.55-34.44,30.45-18.69,65.25-42.65,96.11-41.51,53.49-135.55-3.92-202.39,30.82-38.92,20.23-80.37,76.03-85.09,235.74"/>
      <path class="cls-15" d="M673.69,12.26c-4.69,52.01-16.61,129.46-65.95,167.92-39.38,30.69-106.34,50.02-148.91,60.73-35.42,8.91-53.56,8.8-73.09,26.18-34.43,30.64-19.21,65.01-42.86,95.02-41.72,52.95-136.67-6.27-204.81,27.65-39.86,19.84-82.63,75.89-89.6,238.21"/>
      <path class="cls-11" d="M672.61,10.9c-3.93,51.29-14.8,130.77-65.46,170.36-38.68,30.22-105.29,50.11-147.85,61.28-34.26,8.99-52.33,9.47-71.77,26.81-34.36,30.91-19.74,64.78-43.07,93.94-41.93,52.4-137.79-8.62-207.24,24.48-40.81,19.45-84.89,75.75-94.11,240.67"/>
      <path class="cls-14" d="M671.54,9.54c-3.18,50.57-12.99,132.08-64.97,172.8-37.98,29.75-104.24,50.19-146.79,61.84-33.11,9.06-51.14,10.1-70.44,27.44-34.36,31.1-20.26,64.54-43.28,92.85-42.16,51.85-138.9-10.98-209.67,21.31-41.75,19.05-87.16,75.61-98.62,243.13"/>
      <path class="cls-21" d="M670.47,8.18c-2.42,49.86-11.18,133.38-64.48,175.24-37.28,29.28-103.21,50.25-145.73,62.39-31.96,9.12-49.95,10.73-69.11,28.07-34.36,31.29-20.79,64.3-43.5,91.76-42.39,51.29-140.02-13.34-212.09,18.14-42.7,18.65-89.42,75.47-103.13,245.59"/>
      <path class="cls-12" d="M669.4,6.82c-1.67,49.14-9.38,134.68-63.98,177.68-36.58,28.81-102.18,50.29-144.67,62.94-30.82,9.18-48.76,11.36-67.78,28.69-34.36,31.48-21.33,64.05-43.71,90.68-42.62,50.72-141.14-15.71-214.52,14.97-43.64,18.25-91.68,75.33-107.64,248.06"/>
      <path class="cls-18" d="M668.32,5.46c-.91,48.42-7.59,135.98-63.49,180.12-35.89,28.33-101.16,50.31-143.61,63.5-29.68,9.22-47.57,11.99-66.45,29.32-34.35,31.67-21.87,63.8-43.92,89.59-42.87,50.14-142.26-18.09-216.94,11.8-44.59,17.84-93.94,75.19-112.16,250.52"/>
      <path class="cls-8" d="M667.25,4.1c-.16,47.71-5.79,137.27-63,182.56-35.19,27.86-100.15,50.3-142.55,64.05-28.54,9.25-46.37,12.62-65.13,29.95-34.35,31.86-22.41,63.55-44.13,88.5-43.13,49.55-143.38-20.46-219.37,8.63-45.53,17.43-96.2,75.05-116.67,252.98"/>
      <path class="cls-16" d="M666.18,2.74c.6,46.99-4.09,138.45-62.51,185-34.55,27.32-99.15,50.27-141.49,64.61-27.42,9.28-45.18,13.25-63.8,30.58-34.35,32.05-22.95,63.29-44.35,87.42-43.4,48.95-144.49-22.85-221.79,5.46-46.47,17.02-98.46,74.91-121.18,255.45"/>
      <path class="cls-25" d="M665.11,1.38c1.35,46.27-2.26,139.78-62.02,187.44-33.83,26.88-98.16,50.21-140.43,65.16-26.3,9.3-43.99,13.88-62.47,31.21-34.35,32.24-23.5,63.03-44.56,86.33-43.67,48.33-145.64-25.32-224.22,2.28-47.44,16.55-100.73,74.77-125.69,257.91"/>
      <path class="cls-30" d="M664.03.02c2.11,45.56-.44,141.11-61.53,189.88-33.11,26.44-97.2,50.12-139.37,65.71-25.19,9.31-42.8,14.51-61.14,31.83-34.34,32.43-24.05,62.76-44.77,85.24-43.96,47.71-146.72-27.63-226.65-.89C82.21,387.98,27.58,446.43.37,632.17"/>
    </g>
  </g>
</svg>
