<svg width="19" height="18" viewBox="0 0 19 18" fill="none" xmlns="http://www.w3.org/2000/svg">
<path d="M9.34215 0C6.89788 0 6.59112 0.0106877 5.63111 0.0543752C4.67298 0.0982502 4.01897 0.249938 3.44672 0.4725C2.85477 0.702375 2.35264 1.00988 1.85239 1.51031C1.35176 2.01056 1.04425 2.51269 0.813626 3.10444C0.590499 3.67687 0.438622 4.33106 0.395497 5.28881C0.352559 6.24881 0.341309 6.55575 0.341309 9C0.341309 11.4443 0.352184 11.7501 0.395684 12.7101C0.439747 13.6682 0.591436 14.3222 0.813814 14.8944C1.04388 15.4864 1.35138 15.9885 1.85182 16.4888C2.35189 16.9894 2.85402 17.2976 3.44559 17.5275C4.01822 17.7501 4.67242 17.9018 5.63036 17.9456C6.59037 17.9893 6.89694 18 9.34103 18C11.7855 18 12.0913 17.9893 13.0513 17.9456C14.0095 17.9018 14.6642 17.7501 15.2368 17.5275C15.8286 17.2976 16.33 16.9894 16.83 16.4888C17.3307 15.9885 17.6382 15.4864 17.8688 14.8946C18.0901 14.3222 18.2419 13.668 18.2869 12.7103C18.3301 11.7503 18.3413 11.4443 18.3413 9C18.3413 6.55575 18.3301 6.249 18.2869 5.289C18.2419 4.33087 18.0901 3.67687 17.8688 3.10462C17.6382 2.51269 17.3307 2.01056 16.83 1.51031C16.3294 1.00969 15.8288 0.702188 15.2363 0.4725C14.6625 0.249938 14.0081 0.0982502 13.05 0.0543752C12.09 0.0106877 11.7844 0 9.33934 0H9.34215ZM8.53477 1.62187C8.7744 1.6215 9.04177 1.62187 9.34215 1.62187C11.7452 1.62187 12.03 1.6305 12.9789 1.67363C13.8564 1.71375 14.3327 1.86038 14.65 1.98356C15.07 2.14669 15.3694 2.34169 15.6842 2.65669C15.9992 2.97169 16.1942 3.27169 16.3577 3.69169C16.4809 4.00856 16.6277 4.48481 16.6677 5.36231C16.7108 6.31106 16.7202 6.59606 16.7202 8.99794C16.7202 11.3998 16.7108 11.6848 16.6677 12.6336C16.6275 13.5111 16.4809 13.9873 16.3577 14.3042C16.1946 14.7242 15.9992 15.0233 15.6842 15.3381C15.3692 15.6531 15.0701 15.8481 14.65 16.0112C14.3331 16.1349 13.8564 16.2812 12.9789 16.3213C12.0302 16.3644 11.7452 16.3738 9.34215 16.3738C6.93894 16.3738 6.65412 16.3644 5.70536 16.3213C4.82786 16.2808 4.3516 16.1342 4.03416 16.011C3.61416 15.8479 3.31415 15.6529 2.99915 15.3379C2.68415 15.0229 2.48914 14.7236 2.32564 14.3034C2.20245 13.9866 2.05564 13.5103 2.0157 12.6328C1.97258 11.6841 1.96395 11.3991 1.96395 8.99569C1.96395 6.59231 1.97258 6.30881 2.0157 5.36006C2.05583 4.48256 2.20245 4.00631 2.32564 3.68906C2.48877 3.26906 2.68415 2.96906 2.99915 2.65406C3.31415 2.33906 3.61416 2.14406 4.03416 1.98056C4.35141 1.85681 4.82786 1.71056 5.70536 1.67025C6.53562 1.63275 6.85738 1.6215 8.53477 1.61963V1.62187ZM14.1463 3.11625C13.5501 3.11625 13.0663 3.59944 13.0663 4.19587C13.0663 4.79212 13.5501 5.27588 14.1463 5.27588C14.7426 5.27588 15.2263 4.79212 15.2263 4.19587C15.2263 3.59962 14.7426 3.11588 14.1463 3.11588V3.11625ZM9.34215 4.37812C6.78969 4.37812 4.72023 6.44756 4.72023 9C4.72023 11.5524 6.78969 13.6209 9.34215 13.6209C11.8946 13.6209 13.9633 11.5524 13.9633 9C13.9633 6.44756 11.8946 4.37812 9.34215 4.37812ZM9.34215 6C10.9989 6 12.3422 7.34306 12.3422 9C12.3422 10.6567 10.9989 12 9.34215 12C7.6852 12 6.34212 10.6567 6.34212 9C6.34212 7.34306 7.6852 6 9.34215 6Z" fill="white"/>
</svg>
