<svg width="19" height="18" viewBox="0 0 19 18" fill="none" xmlns="http://www.w3.org/2000/svg">
<path d="M18.3411 17.9992V11.3992C18.3411 8.16675 17.6445 5.68425 13.8767 5.68425C12.431 5.63175 11.0752 6.37425 10.3486 7.62675H10.2962V5.98425H6.72314V17.9992H10.446V12.0518C10.446 10.4843 10.7456 8.96925 12.6782 8.96925C14.6108 8.96925 14.6183 10.7542 14.6183 12.1492V17.9992H18.3411Z" fill="white"/>
<path d="M0.670898 5.98438H4.39374V17.9994H0.670898V5.98438Z" fill="white"/>
<path d="M2.52857 0C1.33007 0 0.348799 0.960004 0.341309 2.16C0.341309 3.36 1.30011 4.3425 2.49861 4.35C3.69711 4.35 4.67839 3.39 4.68588 2.19C4.68588 2.1825 4.68588 2.175 4.68588 2.16C4.68588 0.967504 3.71958 0 2.52857 0Z" fill="white"/>
</svg>
