<svg width="100" height="101" viewBox="0 0 100 101" fill="none" xmlns="http://www.w3.org/2000/svg">
<g clip-path="url(#clip0_64_178)">
<mask id="mask0_64_178" style="mask-type:luminance" maskUnits="userSpaceOnUse" x="0" y="0" width="100" height="101">
<path d="M100 0.5H0V100.5H100V0.5Z" fill="white"/>
</mask>
<g mask="url(#mask0_64_178)">
<path d="M63.6165 55.654C72.928 59.179 85.4615 58.5365 93.4415 54.125L100 50.5L93.4415 46.8749C85.4615 42.4637 72.9285 41.8214 63.6165 45.3458L56.6335 47.9891C56.59 47.8484 56.5375 47.7126 56.486 47.5758L63.273 44.516C72.35 40.424 80.7575 31.1075 83.2815 22.3454L85.3555 15.1444L78.1545 17.2183C69.3925 19.7421 60.076 28.15 55.9835 37.2267L53.0285 43.7821C52.892 43.7158 52.7555 43.65 52.6145 43.5925L55.154 36.8833C58.6785 27.5717 58.036 15.0383 53.625 7.05815L50 0.5L46.3749 7.05835C41.9637 15.0386 41.3214 27.5716 44.8458 36.8835L47.3853 43.5928C47.2442 43.6502 47.1077 43.716 46.9714 43.7823L44.016 37.227C39.924 28.1503 30.6075 19.7423 21.8454 17.2186L14.6444 15.1447L16.7183 22.3456C19.2421 31.1075 27.65 40.4242 36.7267 44.5163L43.5137 47.576C43.4623 47.7128 43.4095 47.8486 43.3665 47.9893L36.3833 45.3461C27.0717 41.8214 14.5383 42.464 6.55815 46.8751L0 50.5L6.55835 54.125C14.5386 58.5365 27.0716 59.179 36.3835 55.654L43.6931 52.8875C43.7507 53.0135 43.8086 53.14 43.8735 53.262L36.727 56.484C27.6503 60.576 19.2423 69.8925 16.7186 78.6545L14.6447 85.8555L21.8456 83.7815C30.6075 81.258 39.9242 72.85 44.0163 63.7735L47.3328 56.417C47.4554 56.468 47.5826 56.51 47.7086 56.5545L44.8461 64.117C41.3214 73.4285 41.964 85.962 46.3751 93.942L50 100.501L53.6255 93.942C58.0365 85.962 58.679 73.429 55.1545 64.117L52.2915 56.554C52.4175 56.51 52.545 56.468 52.6675 56.4165L55.984 63.773C60.076 72.85 69.3925 81.2575 78.1545 83.7815L85.3555 85.8555L83.2815 78.6545C80.758 69.8925 72.35 60.576 63.2735 56.4835L56.1265 53.262C56.1915 53.14 56.2495 53.0135 56.307 52.887L63.6165 55.654Z" fill="#28927C"/>
</g>
</g>
<defs>
<clipPath id="clip0_64_178">
<rect width="100" height="100" fill="white" transform="translate(0 0.5)"/>
</clipPath>
</defs>
</svg>
